<mxfile host="Electron" modified="2024-05-18T19:33:59.430Z" agent="Mozilla/5.0 (Windows NT 10.0; Win64; x64) AppleWebKit/537.36 (KHTML, like Gecko) draw.io/24.2.5 Chrome/120.0.6099.109 Electron/28.1.0 Safari/537.36" etag="BDie2gghAqIBNlmVKOf3" version="24.2.5" type="device">
  <diagram id="KyFuV9225PnN4XaMbhuT" name="Page-1">
    <mxGraphModel dx="1036" dy="606" grid="1" gridSize="10" guides="1" tooltips="1" connect="1" arrows="1" fold="1" page="1" pageScale="1" pageWidth="850" pageHeight="1100" math="1" shadow="0">
      <root>
        <mxCell id="0" />
        <mxCell id="1" parent="0" />
        <mxCell id="O7VBjZS0vXvYhE3YO0KQ-2" value="" style="shape=image;verticalLabelPosition=bottom;labelBackgroundColor=default;verticalAlign=top;aspect=fixed;imageAspect=0;image=data:image/png,iVBORw0KGgoAAAANSUhEUgAAAoAAAAFUCAIAAAA76BrQAAAAA3NCSVQICAjb4U/gAAAW0UlEQVR4nO3d71XbyL8H4OGefW9vBTYV4FRgUwFOBXYqiFNBvBVAKsCpAP8qwFtB2ArwVmBRAfeFzvXlR7JZApJGM/M8ryBnDiPpG8/Hoz+jk8fHxwAAdOt/Ym8AAJRIAANABAIYACIQwAAQgQAGgAgEMABEIIABIAIBDAARCGAAiEAAA0AEAhgAIhDAABCBAAaACAQwAEQggAEgAgEMABEIYACIQAADQAQCGAAiEMD8WFVVVVV10wagQAKYH9tsNpvNpps2AAU6eXx8jL0N9NHp6WkI4f7+voM2AAUyA+YHttvtfr/f7/fb7bbtNgBlEsD8wJcvX5790F4bgDI5Bc1z+/3+9PR0MBiEEB4eHu7v78fjcUttAIplBsxz6/U6hDCfz+fz+fHXltoAlOuxW4fDYblcDofDEMJyuTwcDh1vQMeS29/D4VBv7f39fX3n1HA4fLbZTbXpieRq9Eal7S/0VtcBfHFx8TT+F4tFxxvQseT29/LyMoQwnU7rX6fTaQjh8vKyjTY9kVyN3qi0/YXe6jqAm5u606Kbm5u6Xjc3NyGE8Xj8tIj1pdym2gCv1tZITScEMM+NRqOnJRuNRuG7KG2qDfAWbY3UdMIp6HZlsL/1yeTZbFb/OpvNwj+ccH57mygyqNEvKW1/cyWAMxDhJqzj53+xWGR/A0gG+3s4HOpHiY63Uw0Gg+9vuWqkTRQZ1OiXlLa/uRLAGYjzHPDJyUn9X6f7rqNIfX+Xy+XXr18Xi0UIof7h++Wdm2oTS+o1+lWl7W9+VDADArgLqe9vvaRG/eBKVVU/WXbj7W1iSb1Gv6q0/c2PCmbAQhz8u/F4PJ1O6xcLTqfTH6ZmU20ACiGAeZHVavXsh/baAJTAKegu5LG/9YR1v9930KZ7edTo5Urb3/yoYAZ+i70BJOMlc9am2gBkzwy4C3nsb1VVIYT6Fqq223Qvjxq9XGn7mx8VzIAA7kJp+5ui0mpU2v7mRwUz4CYsAIhAAANABAIYACIQwAAQgQAGgAgEMABEIIABIAIBDAARCGAAiEAAA0AEAhgAIhDAABCBAAaACAQwAEQggAEgAgEMABEIYACIQAADQAQCGAAi+C1i3+fn5+PxeDKZLBaL4XAYcUuAblRVFUL4+ee9qTa0QQUbFHMGvNvtNpvNarU6PT39+vVrxC0BurHZbDabTTdtaIMKNujk8fExVt+73a6qqqurqz///DOEMJvNbm9vY21Mq05OTkIIEQ81/6q0GsXa39PT0xDC/f19B23ypoI5eOyB29vbwWAQQlgul7G3pRX9OdT8k9JqFGV/b25u6n5vbm7abpM9FcxAX0acb9++1Rl8fX0de1uaV9rgnqLSahRlf2ezWd3vbDZru032VDADMU9BP7PZbD58+LBYLPK7MFDa6c0UlVaj7vd3v9+fnp7W37MfHh7u7+/H43FLbUqgghno0WNI9Xei+nowkJn1eh1CmM/n8/n8+GtLbWiDCjYv6vz7v9RX40ejUewNaV7fDjXfK6dGh8NhuVzW+7tcLg+HQzed1g+c3N/f15/04XD4rOum2mRPBbPRoxHn+vo6hLBYLGJvSPPKGdzTVU6NLi4unn4F7+YTd3l5GUKYTqf1r9PpNIRweXnZRpvsqWA2+jLifPv2rf5a5CYsoiinRq84T9aU4y2v9U2w4/H46YbVFwKbatOxtqr1I93v3ZEKNqsXI87t7W2dvllOfx9LGtzTVU6Nuh/aas+uLo1Go/DdQNxUm+61Va0fibKDQQVbEHPEub293W63x/vRjycl8hOxwLxQOTWKcgLze/WpyONTKPU48MPTlW9v06ru/+eoYLOKC+BnXz1Go1GWZ56Pyhnc01VOjQ6Hw3EEXywWse5/ORwO9YMox5txBoPB9zfsNNKmVd3/z1HBZkX87Md8GcPRw8ND/Uwb0LbhcLjdbutPXMRn7ofD4Xw+//r16/EplPl8/mxp/qbaZEYFs2Et6C6UtshDikqrUR/2t16QoR5qq6r6yaINb2/TnlhHUgWbEvNIRpl3P2MtaKIrrUY92d/6KZTw01tAmmrTklhHUgWbEvFI9mIlrNlsttvtBoOBF1RBUVar1bMf2mtDG1TwLawF3YU+nCzi50qrUX/2tz7ZuN/vO2jThpJPQddU8NV6cRNWzVrQUKCXzHiaakMbVPDVejQDrq/Dj0aj7r8Bta0/31X5J6XVqD/7W1VVCOHnd7021aYNZsAq+Go9mgHvdrvwf/PgJPzqo1Mvb9+HD1Ue1Kj/XjLgNtWGNqjgq/XiJqwQwt3d3adPn0JSAQwAr9aLGfBut3v//n1VVYvF4viarf4zB+o/NQJ6K/JCHA8PD1dXV/XJ5+l0Wv8AtK0/VxBT5xpw6oq7BvzsSttoNFqv1wnNfQHgjXpxDdha0ACUJk4A16tw3d7e3tzcTKfTqqqWy+X5+XmUjQGA7vXiOeDdbjefzx8eHpbL5fX1dezNgfy5gtgU14BTF/FI9iKAQwh3d3ez2ezh4eH6+jqVi8HtnTbvSVEyoEb/xPDdFAGcuohHshfXgEMIk8nk6uoq/N9yHACQt148B1xLbi3ol39j8l01FjUCeqsvM+AjIyAAJehRACe3FjQAvFpfAtha0AAUpRcBvNvtzs/Pk1sLGgBezVrQXXCDT/+VVqPS9rc9HkNKnbWgrQUNQFl6cQraWtAAlMZa0EB3Pn36VFVV7K3g9VSwQb1YijL7taBdrem/0moU8crlZDK5vr6eTCYdd92S0q4Bq2CDenEKejab7Xa7wWCw2Ww2m03szQFadHd39+7duz/++CP2hvBKKtiUXgRwsBY0FGa9Xr979+7u7i72hvBKKvh2fQngkOBa0MDr3N7ejkYjE6l0qWAjehTAtXIuwkGxZrPZ3d3dx48fQwjr9fr8/Hy/38feKH6BCjaiRwFsLWgox3A4vLq6ur29HQwGu93u3bt3X758ib1R/AIVfLu+BLC1oKFAs9lsv99fXFxUVbVarUykkqOCb9GLALYWNBRrOBxut9ubm5vjRMqjEGlRwVfr0VrQFxcX2+021sa0qrRnTFNUWo16+PRqvSDPf/7znxDCfD6/vr4eDocdb94r9PBIxupXBX+56zi9FrYWdGmDe4pKq1EPh+/aZrNZrVYPDw/D4fD6+no+n3e4da/R2yMZq18V/IWuIwbwdDodj8eTyWS5XCbxRenVShvcU1RajXo7fIcQ9vv9crmsn0js/0Sqz0cyVr8q+NKuIwawwY7+KK1GfR6+a1dXV+v1up5I3dzc9Pb2zP4fyVj9quC/6sVNWADPrFaru7u7+mUt5+fn3gGQHBX8VwIY6KnxeLzb7T5//hxCuLq6evfunaVq06KCP+cUdBdK298UlVaj/p/AfOru7m65XP71118hhNVqdXl52crGvUpaRzJWvyr4Q2bAQF+cnJw8e0SiNplM7u7unk6kvAOgn1TwlwhgIA3r9frbt29nZ2feAZAoFXxGAAPJmEwmu93u+A4AE6nkqOBTrgF3obT9TVFpNernFcSXb9Vut1sul3///XcI4erqqh7Qo+jnkYzVrwr+EjNgID1PX4fnHQApUsFgBtyN0vY3RaXV6Id3ynTmeJxfshk/L8put5vP5/VqD+v1uvuJVNyZaCwq2EzXArgDpe1vikqrUTbDd/jvdwDMZrPr6+vxePz2jXwhAfzyxv+kzAoGAdyN0vY3RWrUjaauIH5vu90ul8vu3wFQ2v8cFWyQa8BADubz+fHN8O/fv3///r2FD9NSYAUFMJCJ+s3w19fXg8Fgu92enp7m+orxXJVWQaegu1Da/qZIjbrR3gnMp7p8HV5p/3NUsEFmwEBu6ncAXF5e1hMp7wBITiEVFMBAXzw+PjY4ETm+Dm+/33sdXjdU8JcIYCBbrb4Or6qqDx8+1D9/+PAhs2zoicwr+BhDxK6jKG1/U6RG3Yh1nOt3ANS9r1arRv7mxcXF07F0sVg08md7TgUb5CasLpS2vylSo27EPc7r9bq9N/AMh8PD4dDSH+8PFWyQU9BAKVpdPcq3tw5kVkEBDOSvfgHter0OIXz8+LGR84fPTmB2tnJTmfKsYCO78asidh1FafubIjXqRpTjXI/aIYTRaHR7e9vUnz0cDscRfLFYHA6Hpv5yn6lgg1wD7kJp+5siNepGx8d5v99/+PChvm/248eP6/W68fUcSvufo4IN+q37LgE68OXLl/V6XVXVaDTabDaz2Sz2FvFrsq+gAAZy83TadHFxsdls2lvIkDYUUkE3YQFZ2Ww29XINg8Hg5uZmu91mOXZnrJwKmgEDmagXNqrfn5PxtCljpVVQAAM52G639WqCg8Fgs9l4KCg5BVZQAEOJWl3Q4OVeshn/envq02nTdDrdbDbj8biZ7esxFcxAu9eAq6oqaoHy0vY3RWqUmd1uV7+2fTAYXF5e7na7QsbubBRdwfYeMX71oppnZ2cpPtJe2v6mSI2O6v1Kut/D4bBareo/OJ1O7+/vG/mzvyqDIxmr38Ir+Pj42LtT0GdnZ7vdLu8L70+Vtr8pUqMe2u12Hz582O/3IYTLy8vjOE4qVDCElmP/cDjUL5CaTCY/mUAcDofJZBLSn2eUtr8pUqNaBx//lvp9Om06Ozv79u1bU9v2OukeyVj9quD/d912B/863mU20pW2vylSo8dkh+9v377VpQkhfP78ucENe7VEj2SsflXwv7ruoI+fjHdZjnSl7W+K1CjF4fu4In8fpk1HKR7JWP2q4POuu+nmh+NdxiNdafubosJrlNbw/XTa1NSr6JqS1pGM1a8K/rjrznp6Nt5lP9KVtr8pKrlGCQ3fLb2KrikJHclY/argP3bdZWdPx7sSRrrS9jdFxdYoieH7/v7++AKcjx8/9rMuSRzJWP2q4L903XF/x/GukJGutP1NUZk16v/wfXV1VT/61c9p01H/j2SsflXwX50cu+9MVVX1d6JCnq0sbX9TVGCNYr2E/CX9pvUquj4fyVj9quBLu47Sa70WYJ9L0qzS9jdFpdWot8P3ZrP59OlTQivy9/ZIxupXBX+h6yi9AnH1cPhO9FV0PTySsfpVwV/Vu6UogQIV+Cq6zKjgKwhgIKZiX0WXDRV8tXZfRwjwE0W/ii4LKvgWAhiIoKqqT58+nZ+fV1U1nU7v7u4KfR9OslTw7ZyCBrrmVXSpU8FGuAsaShT3Htra2dnZZrM5LhGcqB7ejdxBvzUVfCOnoIEIPn/+fHd3l/rYXTIVfDunoIFO5TFtKpkKNsUMGOjOx48fTZuSpoINcg0YShTxuldmSrsGnB/XgAGgLAIYACIQwAAQgQAGgAgEMABEIIABIAIBDAARCGAAiEAAA0AEAhgAIhDAABCBAAaACAQwAEQggAEgAgEMABEIYACIQAADQAQCGAAiEMAAEIEABoAIBDAARCCAASACAQwAEQhgAIhAAANABAIYACIQwAAQgQAGulNVVVVV3bShDSrYIAEMdGez2Ww2m27a0AYVbNDJ4+Nj7G0AunZychJC6P7jf3p6GkK4v7/voE03Yh1JFWxKrCMZzICBzmy32/1+v9/vt9tt221ogwo2SwADHfny5cuzH9prQxtUsFlOQUOJuj/ttt/vT09PB4NBCOHh4eH+/n48HrfUpkvlnIJWwcaZAQNdWK/XIYT5fD6fz4+/ttSGNqhg8x6BkhwOh+VyWX/8l8vl4XDoptPhcBhCuL+/r++7GQ6Hz7puqk3Huh9IVbBZEaNQAENZLi4unn4FXywWHXR6eXkZQphOp/Wv0+k0hHB5edlGm451P3yrYLMEMNCRt50ye5Obm5t6G25ubkII4/H46YbVFwKbatOxtqr1I93v3ZEKNksAQ1m6H9pqo9Ho6WaMRqPw3UDcVJvutVWtH4myg0EFWyCAoSxRTmB+rz4VOZvN6l9ns1n4h9OVb2+TGRXMhgCGshwOh+MIvlgsYt3/cjgc6gdRjjfjDAaD72/YaaRNZlQwG781O4sHem44HG632/rZx4iL8Q6Hw/l8/vXr1+NTKPP5vL4/tvE2mVHBbFiIA0oUcfGBo3pBhnqorarqJ4s2vL1NflQwAxbiAOIYj8fT6bR+Ld10Ov3hmNtUG9qggm8kgIFoVqvVsx/aa0MbVPAtnIKGEvXhBGatnu7s9/sO2uREBTPgJiwgppfMeJpqQxtU8NXMgKFE/Zk/VVUVQvj5Xa9NtcmJCmZAAEOJ+jN88zoqmAE3YQFABAIYACIQwAAQgQAGgAgEMABEIIABIAIBDAARCGAAiEAAA0AEAhgAIhDAABCBAAaACAQwAEQggAEgAgEMABEIYACIQAADQAQCGAAiEMAAEIEABoAIBDAARCCAASACAQwAEQhgAIhAAANABL/F3gCgU1VVff36NfZW8HoqmA0BDKXY7/d//PHHdrutqiqEMBqNYm8Rv0YFM+MUNORvu92en5+fnp5uNpuqqqbT6c3NzX6/j71dvJQKZskMGLJVn6u8urqqR+rBYDCfz9fr9Xg8jr1pvIgK5s0MGHL2+Pj4+PhY/3xycnJychJ3e/hVKpixk2NpgVxtt9urq6s///yz/nU2m61Wq4uLi7hbxcupYJYEMJRiv9+v1+vtdvvw8BBCGI/Hq9VqsVgMh8PYm8aLqGBmBDCUpaqqzWZzdXX1999/hxCGw+F8Pv/8+bPLiqlQwWwIYCiUs5qpU8HUCWAomrOaqVPBdLkLGkr39N7ap/fckgoVTJTngKFQ2+32y5cvu92u/nU6na5Wq/l8HnereDkVTJ0AhrJY2yF1KpgNAQyl+H4l4dVqtVwuXSxMhQpmRgBD/pyrTJ0KZkkAQ7acq0ydCubNXdCQMysJp04FM+Y5YMifFRtSp4JZEsBQCis2pE4FMyOAoSxWEk6dCmZDAEOhnNVMnQqmTgBD0ZzVTJ0Kpstd0FA6KwmnTgUT5TlgKJS1HVKngqkTwFAWazukTgWzIYChFFYSTp0KZkYAQ/6cq0ydCmZJAEO2nKtMnQrmzV3QkDMrCadOBTPmOWDInxUbUqeCWRLAUAorNqROBTMjgKEsVhJOnQpmQwBDoZzVTJ0Kpk4AQ9Gc1UydCqbLXdBQOisJp04FE+U5YCiUtR1Sp4KpE8BQovF4XN/CY22HRKlgBlwDhhLVZywvLy+tJJwoFcyAAIYS1cO3j3+6VDADbsICgAgEMABEIIABIAIBDAARCGAAiEAAA0AEAhgAIhDAABCBAAaACAQwAEQggAEgAgEMABEIYACIQAADQAQCGAAiEMCQs6qqqqqKvRW8ngpmTABDtqqq+v3333///feT79QNvv/32mQyMej3gQrmTQAD/+Xs7Gy32w2Hw9gbwiupYCoEMGRrOBweDoezs7MQwmQyORwOj//gcDhMJpNg7O4ZFcybAIacDYfD3W53dnZ2d3d3fn7+w9OSVVWdn5/f3d0Zu3tIBTMmgCFzPx/Bjd39p4K5EsCQv38awY3dqVDBLJ08Pj7G3gagC1VVzWazv/76azKZ3N7ehhCM3WlRwcwIYCjI0xE8hGDsTo4K5kQAQ1mOI3hwx2yaVDAbAhiKU4/gIQRjd6JUMA8CGEpU38Vj7E6XCmZAAANABB5DAoAIBDAARCCAASACAQwAEQhgAIhAAANABAIYACIQwAAQgQAGgAgEMABEIIABIAIBDAARCGAAiEAAA0AEAhgAIhDAABCBAAaACAQwAEQggAEgAgEMABEIYACIQAADQAQCGAAiEMAAEIEABoAIBDAARCCAASACAQwAEQhgAIhAAANABAIYACIQwAAQgQAGgAgEMABEIIABIAIBDAARCGAAiOB/AXvy1wt3n31nAAAAAElFTkSuQmCC;" parent="1" vertex="1">
          <mxGeometry x="105" y="130" width="640" height="340" as="geometry" />
        </mxCell>
        <mxCell id="O7VBjZS0vXvYhE3YO0KQ-6" value="&lt;font style=&quot;font-size: 16px;&quot;&gt;$$1.8 k\Omega$$&lt;/font&gt;" style="text;html=1;strokeColor=none;fillColor=none;align=center;verticalAlign=middle;whiteSpace=wrap;rounded=0;fontColor=#000000;" parent="1" vertex="1">
          <mxGeometry x="270" y="130" width="60" height="20" as="geometry" />
        </mxCell>
        <mxCell id="O7VBjZS0vXvYhE3YO0KQ-7" value="&lt;font style=&quot;font-size: 16px;&quot;&gt;$$22 k\Omega$$&lt;/font&gt;" style="text;html=1;strokeColor=none;fillColor=none;align=center;verticalAlign=middle;whiteSpace=wrap;rounded=0;" parent="1" vertex="1">
          <mxGeometry x="470" y="170" width="60" height="20" as="geometry" />
        </mxCell>
        <mxCell id="O7VBjZS0vXvYhE3YO0KQ-8" value="&lt;font style=&quot;font-size: 16px;&quot;&gt;$$22 k\Omega$$&lt;/font&gt;" style="text;html=1;strokeColor=none;fillColor=none;align=center;verticalAlign=middle;whiteSpace=wrap;rounded=0;" parent="1" vertex="1">
          <mxGeometry x="470" y="340" width="60" height="20" as="geometry" />
        </mxCell>
        <mxCell id="O7VBjZS0vXvYhE3YO0KQ-9" value="&lt;font style=&quot;font-size: 16px;&quot;&gt;$$3.3 k\Omega$$&lt;/font&gt;" style="text;html=1;strokeColor=none;fillColor=none;align=center;verticalAlign=middle;whiteSpace=wrap;rounded=0;" parent="1" vertex="1">
          <mxGeometry x="380" y="370" width="60" height="30" as="geometry" />
        </mxCell>
        <mxCell id="O7VBjZS0vXvYhE3YO0KQ-10" value="&lt;font style=&quot;font-size: 16px;&quot;&gt;$$2.2 k\Omega$$&lt;/font&gt;" style="text;html=1;strokeColor=none;fillColor=none;align=center;verticalAlign=middle;whiteSpace=wrap;rounded=0;" parent="1" vertex="1">
          <mxGeometry x="530" y="370" width="60" height="30" as="geometry" />
        </mxCell>
        <mxCell id="O7VBjZS0vXvYhE3YO0KQ-11" value="&lt;font style=&quot;font-size: 16px;&quot;&gt;$$220\Omega$$&lt;/font&gt;" style="text;html=1;strokeColor=none;fillColor=none;align=center;verticalAlign=middle;whiteSpace=wrap;rounded=0;" parent="1" vertex="1">
          <mxGeometry x="620" y="170" width="60" height="20" as="geometry" />
        </mxCell>
        <mxCell id="O7VBjZS0vXvYhE3YO0KQ-12" value="&lt;font style=&quot;font-size: 16px;&quot;&gt;$$220\Omega$$&lt;/font&gt;" style="text;html=1;strokeColor=none;fillColor=none;align=center;verticalAlign=middle;whiteSpace=wrap;rounded=0;" parent="1" vertex="1">
          <mxGeometry x="620" y="340" width="60" height="20" as="geometry" />
        </mxCell>
        <mxCell id="O7VBjZS0vXvYhE3YO0KQ-13" value="&lt;font style=&quot;font-size: 16px;&quot;&gt;$$10nF$$&lt;/font&gt;" style="text;html=1;strokeColor=none;fillColor=none;align=center;verticalAlign=middle;whiteSpace=wrap;rounded=0;" parent="1" vertex="1">
          <mxGeometry x="380" y="200" width="50" height="30" as="geometry" />
        </mxCell>
        <mxCell id="O7VBjZS0vXvYhE3YO0KQ-14" value="&lt;font style=&quot;font-size: 16px;&quot;&gt;$$100nF$$&lt;/font&gt;" style="text;html=1;strokeColor=none;fillColor=none;align=center;verticalAlign=middle;whiteSpace=wrap;rounded=0;" parent="1" vertex="1">
          <mxGeometry x="240" y="200" width="60" height="30" as="geometry" />
        </mxCell>
        <mxCell id="O7VBjZS0vXvYhE3YO0KQ-15" value="&lt;font style=&quot;font-size: 16px;&quot;&gt;$$18mH$$&lt;/font&gt;" style="text;html=1;strokeColor=none;fillColor=none;align=center;verticalAlign=middle;whiteSpace=wrap;rounded=0;" parent="1" vertex="1">
          <mxGeometry x="150" y="200" width="60" height="30" as="geometry" />
        </mxCell>
        <mxCell id="0qr0ll7ZTNeyi7-lG3IS-1" value="" style="rounded=0;whiteSpace=wrap;html=1;strokeColor=#ff0000;strokeWidth=3;dashed=1;fillColor=none;dashPattern=1 1;" vertex="1" parent="1">
          <mxGeometry x="255" y="120" width="90" height="60" as="geometry" />
        </mxCell>
        <mxCell id="0qr0ll7ZTNeyi7-lG3IS-2" value="&lt;font style=&quot;font-size: 16px;&quot;&gt;$$a$$&lt;/font&gt;" style="text;html=1;strokeColor=none;fillColor=none;align=center;verticalAlign=middle;whiteSpace=wrap;rounded=0;" vertex="1" parent="1">
          <mxGeometry x="350" y="130" width="30" height="30" as="geometry" />
        </mxCell>
      </root>
    </mxGraphModel>
  </diagram>
</mxfile>
